<?xml version="1.0" encoding="UTF-8"?>
<svg xmlns="http://www.w3.org/2000/svg" id="Layer_1" data-name="Layer 1" viewBox="0 0 24 24">
  <path d="M22.999,11.508c-.399-5.045-3.911-5.693-6.926-5.694h-.005c-2.113,0-4.743,.318-6.067,2.488-.406-.882-1.245-1.316-2.537-1.316-1.9,0-2.823,.937-2.823,2.863,0,.986,.243,1.712,.734,2.187-1.684,.157-2.912,.326-3.374,.393V4.957c0-.276-.224-.5-.5-.5s-.5,.224-.5,.5v14.087c0,.276,.224,.5,.5,.5s.5-.224,.5-.5v-1.156c.958,.14,5.204,.716,10,.716s9.041-.577,10-.716v1.058c0,.276,.224,.5,.5,.5s.5-.224,.5-.5v-7.438Zm-6.932-4.694h.005c3.943,0,5.661,1.384,5.927,4.734v.881c-.958-.14-5.204-.717-10-.717-.638,0-1.266,.01-1.878,.028,.023-.055,.036-.114,.038-.177,.101-3.329,1.867-4.749,5.908-4.749Zm-8.604,1.172c1.183,0,1.823,.297,1.823,1.863s-.668,1.863-1.823,1.863c-1.183,0-1.823-.297-1.823-1.863,0-1.558,.668-1.863,1.823-1.863Zm4.536,9.618c-5.067,0-9.509-.652-10-.727v-3.438c.492-.075,4.945-.727,10-.727s9.509,.653,10,.727v3.438c-.492,.075-4.945,.727-10,.727Z"/>
</svg>
