<?xml version="1.0" encoding="utf-8"?>
<svg version="1.1" xmlns="http://www.w3.org/2000/svg" viewBox="200 150 450 320">
<style type="text/css">
  .bg{fill:#0f1b2d;rx:24}
  .logo,.inner{fill:#FFFFFF;}
</style>
<rect class="bg" x="200" y="150" width="450" height="320" rx="24"/>
<g>
	<path class="logo" d="M571.5,417.8c-100.7,0-200.5,0-301.1,0c0-15.4,0-30.4,0-45.4c0-11.3-0.1-22.6,0.3-33.8c0.1-2.2,1.8-5.2,3.7-6.4
		c7.7-4.7,16-8.7,23.7-13.4c1.9-1.1,3.6-4.1,3.7-6.3c0.5-7.4,0.2-14.9,0.2-22.7c6,0,11.5,0,17.6,0c0,5.5,0,10.9,0,17.2
		c14-7.5,27-14.3,39.9-21.5c1.3-0.7,1.6-3.8,1.6-5.7c0.1-20,0.2-40,0-60c0-3.8,1.1-6.1,4.4-8.1c18.2-11.1,36.3-22.5,54.6-33.5
		c1.8-1.1,5.5-1.1,7.4,0c21.7,12.1,43.3,24.5,64.8,37.1c1.9,1.1,3.4,4.7,3.4,7.1c0.2,32.3,0.3,64.5,0,96.8c-0.1,5.5,1.9,8,6.4,10.4
		c22,12,43.8,24.3,65.7,36.7c1.6,0.9,3.6,3,3.6,4.5C571.6,386.3,571.5,401.7,571.5,417.8z M441,408c0.3-1.2,0.5-1.7,0.5-2.3
		c0-35.6-0.1-71.2-0.3-106.8c0-1.6-1.6-3.9-3.1-4.8c-10.2-6.1-20.4-12.1-30.8-17.7c-1.8-1-4.9-1.1-6.6-0.2
		c-38.6,20.6-77.2,41.5-115.8,62.2c-3.1,1.7-4.4,3.7-4.3,7.4c0.2,19.2,0.1,38.4,0.1,57.6c0,1.5,0.3,3,0.5,4.7
		C334.6,408,387.6,408,441,408z M485.2,407.8c0.2-1.8,0.4-3.4,0.4-4.9c0.1-28.9,0.2-57.7,0.2-86.6c0-29.3,0-58.6-0.2-87.8
		c0-2.1-1.1-5.2-2.7-6.2c-17.8-10.6-36-20.7-53.8-31.3c-4.4-2.6-7.9-1.9-11.8,0.6c-9.8,6.3-19.3,13.3-29.7,18.5
		c-12.6,6.3-18.7,14.9-15.8,29.2c0.6,2.8,0.1,5.9,0.1,8.9c0,10,0,20,0,30.9c9.5-4.9,18.1-9.2,26.6-13.9c3.9-2.1,6.9-2.3,10.9,0.1
		c12,7.3,24.1,14.4,36.5,20.9c5,2.6,6.3,5.8,6.2,11.1c-0.2,34.4-0.1,68.8-0.1,103.3c0,2.3,0,4.6,0,7.3
		C463.3,407.8,474.1,407.8,485.2,407.8z M561.1,407.9c0-10-0.2-19.3,0.1-28.5c0.1-3.4-1-5.3-4-7c-19-10.5-37.8-21.2-56.7-31.8
		c-1.3-0.7-2.6-1.3-4.2-2c0,23.4,0,46.2,0,69.3C518,407.9,539.2,407.9,561.1,407.9z"/>
</g>
</svg>
