<svg xmlns="http://www.w3.org/2000/svg" style="display:none" aria-hidden="true">

  <!-- stroke="currentColor" fill="none" stroke-width="1.5" stroke-linecap="round" stroke-linejoin="round" -->

  <!-- NAVIGATION & UI -->
  <symbol id="icon-arrow-left" viewBox="0 0 24 24"><polyline fill="none" stroke="currentColor" stroke-width="1.5" stroke-linecap="round" stroke-linejoin="round" points="15 18 9 12 15 6"/></symbol>
  <symbol id="icon-arrow-up" viewBox="0 0 24 24"><line fill="none" stroke="currentColor" stroke-width="1.5" stroke-linecap="round" x1="12" y1="19" x2="12" y2="5"/><polyline fill="none" stroke="currentColor" stroke-width="1.5" stroke-linecap="round" stroke-linejoin="round" points="5 12 12 5 19 12"/></symbol>
  <symbol id="icon-arrows-rotate" viewBox="0 0 24 24"><path fill="none" stroke="currentColor" stroke-width="1.5" stroke-linecap="round" stroke-linejoin="round" d="M23 4v6h-6"/><path fill="none" stroke="currentColor" stroke-width="1.5" stroke-linecap="round" stroke-linejoin="round" d="M1 20v-6h6"/><path fill="none" stroke="currentColor" stroke-width="1.5" stroke-linecap="round" d="M3.51 9a9 9 0 0114.85-3.36L23 10M1 14l4.64 4.36A9 9 0 0020.49 15"/></symbol>
  <symbol id="icon-arrows-up-down" viewBox="0 0 24 24"><line fill="none" stroke="currentColor" stroke-width="1.5" stroke-linecap="round" x1="12" y1="2" x2="12" y2="22"/><polyline fill="none" stroke="currentColor" stroke-width="1.5" stroke-linecap="round" stroke-linejoin="round" points="17 7 12 2 7 7"/><polyline fill="none" stroke="currentColor" stroke-width="1.5" stroke-linecap="round" stroke-linejoin="round" points="17 17 12 22 7 17"/></symbol>
  <symbol id="icon-chevron-down" viewBox="0 0 24 24"><polyline fill="none" stroke="currentColor" stroke-width="1.5" stroke-linecap="round" stroke-linejoin="round" points="6 9 12 15 18 9"/></symbol>
  <symbol id="icon-chevron-left" viewBox="0 0 24 24"><polyline fill="none" stroke="currentColor" stroke-width="1.5" stroke-linecap="round" stroke-linejoin="round" points="15 18 9 12 15 6"/></symbol>
  <symbol id="icon-chevron-right" viewBox="0 0 24 24"><polyline fill="none" stroke="currentColor" stroke-width="1.5" stroke-linecap="round" stroke-linejoin="round" points="9 18 15 12 9 6"/></symbol>
  <symbol id="icon-xmark" viewBox="0 0 24 24"><line stroke="currentColor" stroke-width="1.5" stroke-linecap="round" x1="18" y1="6" x2="6" y2="18"/><line stroke="currentColor" stroke-width="1.5" stroke-linecap="round" x1="6" y1="6" x2="18" y2="18"/></symbol>
  <symbol id="icon-plus" viewBox="0 0 24 24"><line stroke="currentColor" stroke-width="1.5" stroke-linecap="round" x1="12" y1="5" x2="12" y2="19"/><line stroke="currentColor" stroke-width="1.5" stroke-linecap="round" x1="5" y1="12" x2="19" y2="12"/></symbol>
  <symbol id="icon-check" viewBox="0 0 24 24"><polyline fill="none" stroke="currentColor" stroke-width="1.5" stroke-linecap="round" stroke-linejoin="round" points="20 6 9 17 4 12"/></symbol>
  <symbol id="icon-list" viewBox="0 0 24 24"><circle fill="currentColor" cx="3.5" cy="6" r="1"/><circle fill="currentColor" cx="3.5" cy="12" r="1"/><circle fill="currentColor" cx="3.5" cy="18" r="1"/><line stroke="currentColor" stroke-width="1.5" stroke-linecap="round" x1="8" y1="6" x2="21" y2="6"/><line stroke="currentColor" stroke-width="1.5" stroke-linecap="round" x1="8" y1="12" x2="21" y2="12"/><line stroke="currentColor" stroke-width="1.5" stroke-linecap="round" x1="8" y1="18" x2="21" y2="18"/></symbol>
  <symbol id="icon-ellipsis-vertical" viewBox="0 0 24 24"><circle fill="currentColor" cx="12" cy="5" r="1.3"/><circle fill="currentColor" cx="12" cy="12" r="1.3"/><circle fill="currentColor" cx="12" cy="19" r="1.3"/></symbol>
  <symbol id="icon-search" viewBox="0 0 24 24"><circle fill="none" stroke="currentColor" stroke-width="1.5" cx="11" cy="11" r="8"/><line stroke="currentColor" stroke-width="1.5" stroke-linecap="round" x1="21" y1="21" x2="16.65" y2="16.65"/></symbol>
  <symbol id="icon-eye" viewBox="0 0 24 24"><path fill="none" stroke="currentColor" stroke-width="1.5" stroke-linecap="round" stroke-linejoin="round" d="M1 12s4-8 11-8 11 8 11 8-4 8-11 8-11-8-11-8z"/><circle fill="none" stroke="currentColor" stroke-width="1.5" cx="12" cy="12" r="3"/></symbol>
  <symbol id="icon-ban" viewBox="0 0 24 24"><circle fill="none" stroke="currentColor" stroke-width="1.5" cx="12" cy="12" r="10"/><line stroke="currentColor" stroke-width="1.5" stroke-linecap="round" x1="4.93" y1="4.93" x2="19.07" y2="19.07"/></symbol>
  <symbol id="icon-info" viewBox="0 0 24 24"><circle fill="none" stroke="currentColor" stroke-width="1.5" cx="12" cy="12" r="10"/><circle fill="currentColor" cx="12" cy="8" r="1"/><line stroke="currentColor" stroke-width="1.5" stroke-linecap="round" x1="12" y1="11" x2="12" y2="17"/></symbol>
  <symbol id="icon-filters" viewBox="0 0 24 24"><line stroke="currentColor" stroke-width="1.5" stroke-linecap="round" x1="3" y1="6" x2="21" y2="6"/><line stroke="currentColor" stroke-width="1.5" stroke-linecap="round" x1="3" y1="12" x2="21" y2="12"/><line stroke="currentColor" stroke-width="1.5" stroke-linecap="round" x1="3" y1="18" x2="21" y2="18"/><circle fill="none" stroke="currentColor" stroke-width="1.5" cx="8"  cy="6"  r="2.2"/><circle fill="none" stroke="currentColor" stroke-width="1.5" cx="16" cy="12" r="2.2"/><circle fill="none" stroke="currentColor" stroke-width="1.5" cx="10" cy="18" r="2.2"/></symbol>

  <!-- PROPERTY TYPES -->
  <symbol id="icon-house" viewBox="0 0 24 24"><path fill="none" stroke="currentColor" stroke-width="1.5" stroke-linecap="round" stroke-linejoin="round" d="M3 11.5L12 4l9 7.5"/><path fill="none" stroke="currentColor" stroke-width="1.5" stroke-linecap="round" stroke-linejoin="round" d="M5 10V20a1 1 0 001 1h4v-5h4v5h4a1 1 0 001-1V10"/></symbol>
  <symbol id="icon-apartment" viewBox="0 0 24 24"><rect fill="none" stroke="currentColor" stroke-width="1.5" stroke-linejoin="round" x="2" y="3" width="9" height="18" rx="1"/><path fill="none" stroke="currentColor" stroke-width="1.5" stroke-linecap="round" stroke-linejoin="round" d="M11 8h7a1 1 0 011 1v12"/><line stroke="currentColor" stroke-width="1.5" stroke-linecap="round" x1="2" y1="21" x2="22" y2="21"/><line stroke="currentColor" stroke-width="1.5" stroke-linecap="round" x1="5" y1="7" x2="8" y2="7"/><line stroke="currentColor" stroke-width="1.5" stroke-linecap="round" x1="5" y1="11" x2="8" y2="11"/><line stroke="currentColor" stroke-width="1.5" stroke-linecap="round" x1="5" y1="15" x2="8" y2="15"/><line stroke="currentColor" stroke-width="1.5" stroke-linecap="round" x1="14" y1="12" x2="17" y2="12"/><line stroke="currentColor" stroke-width="1.5" stroke-linecap="round" x1="14" y1="16" x2="17" y2="16"/></symbol>
  <symbol id="icon-villa" viewBox="0 0 24 24"><line stroke="currentColor" stroke-width="1.5" stroke-linecap="round" x1="1" y1="22" x2="23" y2="22"/><path fill="none" stroke="currentColor" stroke-width="1.5" stroke-linecap="round" stroke-linejoin="round" d="M12 3L2 10h20L12 3z"/><path fill="none" stroke="currentColor" stroke-width="1.5" stroke-linecap="round" stroke-linejoin="round" d="M4 22V13h16v9"/><path fill="none" stroke="currentColor" stroke-width="1.5" stroke-linecap="round" stroke-linejoin="round" d="M9 22v-5h6v5"/><line stroke="currentColor" stroke-width="1.5" stroke-linecap="round" x1="7" y1="10" x2="7" y2="13"/><line stroke="currentColor" stroke-width="1.5" stroke-linecap="round" x1="17" y1="10" x2="17" y2="13"/></symbol>
  <symbol id="icon-cabin" viewBox="0 0 24 24"><path fill="none" stroke="currentColor" stroke-width="1.5" stroke-linecap="round" stroke-linejoin="round" d="M2 20L12 4l10 16H2z"/><path fill="none" stroke="currentColor" stroke-width="1.5" stroke-linecap="round" stroke-linejoin="round" d="M9 20v-6h6v6"/><line stroke="currentColor" stroke-width="1.5" stroke-linecap="round" x1="4" y1="16" x2="7" y2="16"/><line stroke="currentColor" stroke-width="1.5" stroke-linecap="round" x1="17" y1="16" x2="20" y2="16"/></symbol>
  <symbol id="icon-tiny-home" viewBox="0 0 24 24"><path fill="none" stroke="currentColor" stroke-width="1.5" stroke-linecap="round" stroke-linejoin="round" d="M3 15.5L12 8l9 7.5"/><path fill="none" stroke="currentColor" stroke-width="1.5" stroke-linecap="round" stroke-linejoin="round" d="M5 14V19h14v-5"/><line stroke="currentColor" stroke-width="1.5" stroke-linecap="round" x1="1" y1="19" x2="23" y2="19"/><circle fill="none" stroke="currentColor" stroke-width="1.5" cx="8" cy="21" r="1.5"/><circle fill="none" stroke="currentColor" stroke-width="1.5" cx="16" cy="21" r="1.5"/><rect fill="none" stroke="currentColor" stroke-width="1.5" x="9.5" y="14" width="5" height="5" rx="0.5"/></symbol>

  <!-- AMENITIES -->
  <symbol id="icon-pool" viewBox="0 0 24 24"><line stroke="currentColor" stroke-width="1.5" stroke-linecap="round" x1="8" y1="14" x2="8" y2="5"/><line stroke="currentColor" stroke-width="1.5" stroke-linecap="round" x1="16" y1="14" x2="16" y2="5"/><line stroke="currentColor" stroke-width="1.5" stroke-linecap="round" x1="6" y1="5" x2="10" y2="5"/><line stroke="currentColor" stroke-width="1.5" stroke-linecap="round" x1="14" y1="5" x2="18" y2="5"/><path fill="none" stroke="currentColor" stroke-width="1.5" stroke-linecap="round" stroke-linejoin="round" d="M2 14.5c1.5-1.5 3.5-1.5 5 0s3.5 1.5 5 0 3.5-1.5 5 0 3.5 1.5 5 0"/><path fill="none" stroke="currentColor" stroke-width="1.5" stroke-linecap="round" stroke-linejoin="round" d="M2 19c1.5-1.5 3.5-1.5 5 0s3.5 1.5 5 0 3.5-1.5 5 0 3.5 1.5 5 0"/></symbol>
  <symbol id="icon-hot-tub" viewBox="0 0 24 24"><path fill="none" stroke="currentColor" stroke-width="1.5" stroke-linecap="round" stroke-linejoin="round" d="M4 13h16v5a2 2 0 01-2 2H6a2 2 0 01-2-2v-5z"/><line stroke="currentColor" stroke-width="1.5" stroke-linecap="round" x1="2" y1="13" x2="22" y2="13"/><path fill="none" stroke="currentColor" stroke-width="1.5" stroke-linecap="round" d="M8 10Q7 8 8 6Q9 4 8 2"/><path fill="none" stroke="currentColor" stroke-width="1.5" stroke-linecap="round" d="M12 10Q11 8 12 6Q13 4 12 2"/><path fill="none" stroke="currentColor" stroke-width="1.5" stroke-linecap="round" d="M16 10Q15 8 16 6Q17 4 16 2"/></symbol>
  <symbol id="icon-wifi" viewBox="0 0 24 24"><path fill="none" stroke="currentColor" stroke-width="1.5" stroke-linecap="round" stroke-linejoin="round" d="M1.5 9.5a14.5 14.5 0 0121 0"/><path fill="none" stroke="currentColor" stroke-width="1.5" stroke-linecap="round" stroke-linejoin="round" d="M5 13a9.5 9.5 0 0114 0"/><path fill="none" stroke="currentColor" stroke-width="1.5" stroke-linecap="round" stroke-linejoin="round" d="M8.5 16.5a5 5 0 017 0"/><circle fill="currentColor" cx="12" cy="20.5" r="1.2"/></symbol>
  <symbol id="icon-parking" viewBox="0 0 24 24"><rect fill="none" stroke="currentColor" stroke-width="1.5" stroke-linejoin="round" x="3" y="3" width="18" height="18" rx="2"/><path fill="none" stroke="currentColor" stroke-width="1.5" stroke-linecap="round" stroke-linejoin="round" d="M9 17V7h4.5a3.5 3.5 0 010 7H9"/></symbol>
  <symbol id="icon-kitchen" viewBox="0 0 24 24"><rect fill="none" stroke="currentColor" stroke-width="1.5" stroke-linejoin="round" x="2" y="4" width="20" height="16" rx="2"/><circle fill="none" stroke="currentColor" stroke-width="1.5" cx="8" cy="10" r="2.5"/><circle fill="none" stroke="currentColor" stroke-width="1.5" cx="16" cy="10" r="2.5"/><line stroke="currentColor" stroke-width="1.5" stroke-linecap="round" x1="2" y1="15.5" x2="22" y2="15.5"/><rect fill="none" stroke="currentColor" stroke-width="1.5" x="7.5" y="15.5" width="9" height="4.5" rx="0.5"/><line stroke="currentColor" stroke-width="1.5" stroke-linecap="round" x1="12" y1="15.5" x2="12" y2="20"/></symbol>
  <symbol id="icon-snowflake" viewBox="0 0 24 24"><line stroke="currentColor" stroke-width="1.5" stroke-linecap="round" x1="12" y1="2" x2="12" y2="22"/><line stroke="currentColor" stroke-width="1.5" stroke-linecap="round" x1="2" y1="12" x2="22" y2="12"/><path fill="none" stroke="currentColor" stroke-width="1.5" stroke-linecap="round" stroke-linejoin="round" d="M17 7l-5 5-5-5M17 17l-5-5-5 5"/><path fill="none" stroke="currentColor" stroke-width="1.5" stroke-linecap="round" stroke-linejoin="round" d="M5 7l5 5-5 5M19 7l-5 5 5 5"/></symbol>
  <symbol id="icon-bath" viewBox="0 0 24 24"><path fill="none" stroke="currentColor" stroke-width="1.5" stroke-linecap="round" stroke-linejoin="round" d="M3 12h18v6a2 2 0 01-2 2H5a2 2 0 01-2-2v-6z"/><line stroke="currentColor" stroke-width="1.5" stroke-linecap="round" x1="3" y1="12" x2="21" y2="12"/><line stroke="currentColor" stroke-width="1.5" stroke-linecap="round" x1="6" y1="20" x2="6" y2="22"/><line stroke="currentColor" stroke-width="1.5" stroke-linecap="round" x1="18" y1="20" x2="18" y2="22"/><path fill="none" stroke="currentColor" stroke-width="1.5" stroke-linecap="round" stroke-linejoin="round" d="M7 12V6a2 2 0 014 0"/></symbol>
  <symbol id="icon-bed" viewBox="0 0 24 24"><path fill="none" stroke="currentColor" stroke-width="1.5" stroke-linecap="round" stroke-linejoin="round" d="M2 4v16M2 8h20a0 0 0 010 0v12"/><path fill="none" stroke="currentColor" stroke-width="1.5" stroke-linecap="round" stroke-linejoin="round" d="M2 16h20"/><line stroke="currentColor" stroke-width="1.5" stroke-linecap="round" x1="22" y1="8" x2="22" y2="20"/></symbol>
  <symbol id="icon-fire" viewBox="0 0 24 24"><path fill="none" stroke="currentColor" stroke-width="1.5" stroke-linecap="round" stroke-linejoin="round" d="M8.5 14.5A2.5 2.5 0 0011 12c0-1.5-.5-2.5-1-3.5C8.9 6.3 9.7 4.2 12 2c.5 2.5 2 4.9 4 6.5 2 1.6 3 3.5 3 5.5a7 7 0 01-14 0c0-1.5.5-3.1 1.5-4.3"/><path fill="none" stroke="currentColor" stroke-width="1.5" stroke-linecap="round" d="M12 12c0 2-1.5 3-1.5 4.5a1.5 1.5 0 003 0C13.5 15 12 14 12 12z"/></symbol>
  <symbol id="icon-bolt" viewBox="0 0 24 24"><polygon fill="none" stroke="currentColor" stroke-width="1.5" stroke-linecap="round" stroke-linejoin="round" points="13 2 3 14 12 14 11 22 21 10 12 10 13 2"/></symbol>
  <symbol id="icon-ruler" viewBox="0 0 24 24"><path fill="none" stroke="currentColor" stroke-width="1.5" stroke-linecap="round" stroke-linejoin="round" d="M2 6l4-4 16 16-4 4L2 6z"/><line stroke="currentColor" stroke-width="1.5" stroke-linecap="round" x1="8.5" y1="8.5" x2="10" y2="7"/><line stroke="currentColor" stroke-width="1.5" stroke-linecap="round" x1="12" y1="12" x2="13.5" y2="10.5"/><line stroke="currentColor" stroke-width="1.5" stroke-linecap="round" x1="15.5" y1="15.5" x2="17" y2="14"/></symbol>
  <symbol id="icon-elevator" viewBox="0 0 24 24"><rect fill="none" stroke="currentColor" stroke-width="1.5" stroke-linejoin="round" x="4" y="2" width="16" height="20" rx="2"/><line stroke="currentColor" stroke-width="1.5" stroke-linecap="round" x1="4" y1="13" x2="20" y2="13"/><polyline fill="none" stroke="currentColor" stroke-width="1.5" stroke-linecap="round" stroke-linejoin="round" points="9 8 12 5 15 8"/><polyline fill="none" stroke="currentColor" stroke-width="1.5" stroke-linecap="round" stroke-linejoin="round" points="9 18 12 21 15 18"/></symbol>
  <symbol id="icon-mountain" viewBox="0 0 24 24"><path fill="none" stroke="currentColor" stroke-width="1.5" stroke-linecap="round" stroke-linejoin="round" d="M3 20l6-10 4 6 3-4 5 8H3z"/><circle fill="none" stroke="currentColor" stroke-width="1.5" cx="17.5" cy="6.5" r="2.5"/></symbol>
  <symbol id="icon-tree" viewBox="0 0 24 24"><line stroke="currentColor" stroke-width="1.5" stroke-linecap="round" x1="12" y1="22" x2="12" y2="13"/><path fill="none" stroke="currentColor" stroke-width="1.5" stroke-linecap="round" stroke-linejoin="round" d="M5 17c0-3.5 3-7 7-9 4 2 7 5.5 7 9H5z"/><path fill="none" stroke="currentColor" stroke-width="1.5" stroke-linecap="round" stroke-linejoin="round" d="M8 13c0-2.5 2-5.5 4-7 2 1.5 4 4.5 4 7"/></symbol>
  <symbol id="icon-sparkle" viewBox="0 0 24 24"><path fill="none" stroke="currentColor" stroke-width="1.5" stroke-linecap="round" stroke-linejoin="round" d="M12 2l2.2 7.8L22 12l-7.8 2.2L12 22l-2.2-7.8L2 12l7.8-2.2L12 2z"/></symbol>
  <symbol id="icon-water" viewBox="0 0 24 24"><path fill="none" stroke="currentColor" stroke-width="1.5" stroke-linecap="round" stroke-linejoin="round" d="M2 7c1.5-1.5 3.5-1.5 5 0s3.5 1.5 5 0 3.5-1.5 5 0 3.5 1.5 5 0"/><path fill="none" stroke="currentColor" stroke-width="1.5" stroke-linecap="round" stroke-linejoin="round" d="M2 12c1.5-1.5 3.5-1.5 5 0s3.5 1.5 5 0 3.5-1.5 5 0 3.5 1.5 5 0"/><path fill="none" stroke="currentColor" stroke-width="1.5" stroke-linecap="round" stroke-linejoin="round" d="M2 17c1.5-1.5 3.5-1.5 5 0s3.5 1.5 5 0 3.5-1.5 5 0 3.5 1.5 5 0"/></symbol>

  <!-- BOOKING & PLATFORM -->
  <symbol id="icon-calendar" viewBox="0 0 24 24"><rect fill="none" stroke="currentColor" stroke-width="1.5" stroke-linejoin="round" x="3" y="4" width="18" height="17" rx="2"/><line stroke="currentColor" stroke-width="1.5" stroke-linecap="round" x1="3" y1="9" x2="21" y2="9"/><line stroke="currentColor" stroke-width="1.5" stroke-linecap="round" x1="8" y1="2" x2="8" y2="6"/><line stroke="currentColor" stroke-width="1.5" stroke-linecap="round" x1="16" y1="2" x2="16" y2="6"/><line stroke="currentColor" stroke-width="1.5" stroke-linecap="round" x1="7" y1="13" x2="8" y2="13"/><line stroke="currentColor" stroke-width="1.5" stroke-linecap="round" x1="12" y1="13" x2="13" y2="13"/><line stroke="currentColor" stroke-width="1.5" stroke-linecap="round" x1="17" y1="13" x2="18" y2="13"/><line stroke="currentColor" stroke-width="1.5" stroke-linecap="round" x1="7" y1="17" x2="8" y2="17"/><line stroke="currentColor" stroke-width="1.5" stroke-linecap="round" x1="12" y1="17" x2="13" y2="17"/></symbol>
  <symbol id="icon-calendar-check" viewBox="0 0 24 24"><rect fill="none" stroke="currentColor" stroke-width="1.5" stroke-linejoin="round" x="3" y="4" width="18" height="17" rx="2"/><line stroke="currentColor" stroke-width="1.5" stroke-linecap="round" x1="3" y1="9" x2="21" y2="9"/><line stroke="currentColor" stroke-width="1.5" stroke-linecap="round" x1="8" y1="2" x2="8" y2="6"/><line stroke="currentColor" stroke-width="1.5" stroke-linecap="round" x1="16" y1="2" x2="16" y2="6"/><polyline fill="none" stroke="currentColor" stroke-width="1.5" stroke-linecap="round" stroke-linejoin="round" points="9 14 11 16 15 12"/></symbol>
  <symbol id="icon-location" viewBox="0 0 24 24"><path fill="none" stroke="currentColor" stroke-width="1.5" stroke-linecap="round" stroke-linejoin="round" d="M12 2a7 7 0 017 7c0 4.8-7 13-7 13S5 13.8 5 9a7 7 0 017-7z"/><circle fill="none" stroke="currentColor" stroke-width="1.5" cx="12" cy="9" r="2.5"/></symbol>
  <symbol id="icon-map" viewBox="0 0 24 24"><path fill="none" stroke="currentColor" stroke-width="1.5" stroke-linecap="round" stroke-linejoin="round" d="M1 6v16l7-4 8 4 7-4V2l-7 4-8-4-7 4z"/><line stroke="currentColor" stroke-width="1.5" stroke-linecap="round" x1="8" y1="2" x2="8" y2="18"/><line stroke="currentColor" stroke-width="1.5" stroke-linecap="round" x1="16" y1="6" x2="16" y2="22"/></symbol>
  <symbol id="icon-user" viewBox="0 0 24 24"><circle fill="none" stroke="currentColor" stroke-width="1.5" cx="12" cy="8" r="4"/><path fill="none" stroke="currentColor" stroke-width="1.5" stroke-linecap="round" d="M4 20c0-4 3.6-7 8-7s8 3 8 7"/></symbol>
  <symbol id="icon-users" viewBox="0 0 24 24"><path fill="none" stroke="currentColor" stroke-width="1.5" stroke-linecap="round" d="M17 21v-2a4 4 0 00-4-4H5a4 4 0 00-4 4v2"/><circle fill="none" stroke="currentColor" stroke-width="1.5" cx="9" cy="7" r="4"/><path fill="none" stroke="currentColor" stroke-width="1.5" stroke-linecap="round" d="M23 21v-2a4 4 0 00-3-3.87"/><path fill="none" stroke="currentColor" stroke-width="1.5" stroke-linecap="round" d="M16 3.13a4 4 0 010 7.75"/></symbol>
  <symbol id="icon-users-slash" viewBox="0 0 24 24"><path fill="none" stroke="currentColor" stroke-width="1.5" stroke-linecap="round" d="M17 21v-2a4 4 0 00-4-4H5a4 4 0 00-4 4v2"/><circle fill="none" stroke="currentColor" stroke-width="1.5" cx="9" cy="7" r="4"/><line stroke="currentColor" stroke-width="1.5" stroke-linecap="round" x1="17" y1="11" x2="23" y2="11"/></symbol>
  <symbol id="icon-star" viewBox="0 0 24 24"><path fill="none" stroke="currentColor" stroke-width="1.5" stroke-linecap="round" stroke-linejoin="round" d="M12 2l2.9 7.3H22l-6.4 4.6 2.4 7.5L12 17.3l-6 4.1 2.4-7.5L2 9.3h7.1L12 2z"/></symbol>
  <symbol id="icon-heart" viewBox="0 0 24 24"><path fill="none" stroke="currentColor" stroke-width="1.5" stroke-linecap="round" stroke-linejoin="round" d="M20.8 4.6a5.5 5.5 0 00-7.8 0L12 5.6l-1-1a5.5 5.5 0 00-7.8 7.8l1 1L12 21l7.8-7.6 1-1a5.5 5.5 0 000-7.8z"/></symbol>
  <symbol id="icon-heart-filled" viewBox="0 0 24 24"><path fill="currentColor" stroke="currentColor" stroke-width="1.5" stroke-linecap="round" stroke-linejoin="round" d="M20.8 4.6a5.5 5.5 0 00-7.8 0L12 5.6l-1-1a5.5 5.5 0 00-7.8 7.8l1 1L12 21l7.8-7.6 1-1a5.5 5.5 0 000-7.8z"/></symbol>
  <symbol id="icon-payment" viewBox="0 0 24 24"><rect fill="none" stroke="currentColor" stroke-width="1.5" stroke-linejoin="round" x="2" y="5" width="20" height="14" rx="2"/><line stroke="currentColor" stroke-width="1.5" stroke-linecap="round" x1="2" y1="10" x2="22" y2="10"/><line stroke="currentColor" stroke-width="1.5" stroke-linecap="round" x1="6" y1="15" x2="10" y2="15"/><line stroke="currentColor" stroke-width="1.5" stroke-linecap="round" x1="14" y1="15" x2="16" y2="15"/></symbol>
  <symbol id="icon-chat" viewBox="0 0 24 24"><path fill="none" stroke="currentColor" stroke-width="1.5" stroke-linecap="round" stroke-linejoin="round" d="M21 15a2 2 0 01-2 2H7l-4 4V5a2 2 0 012-2h14a2 2 0 012 2z"/><circle fill="currentColor" cx="9"  cy="10.5" r="1"/><circle fill="currentColor" cx="12" cy="10.5" r="1"/><circle fill="currentColor" cx="15" cy="10.5" r="1"/></symbol>
  <symbol id="icon-envelope" viewBox="0 0 24 24"><rect fill="none" stroke="currentColor" stroke-width="1.5" stroke-linejoin="round" x="2" y="4" width="20" height="16" rx="2"/><polyline fill="none" stroke="currentColor" stroke-width="1.5" stroke-linecap="round" stroke-linejoin="round" points="2 4 12 13 22 4"/></symbol>
  <symbol id="icon-paper-plane" viewBox="0 0 24 24"><line stroke="currentColor" stroke-width="1.5" stroke-linecap="round" x1="22" y1="2" x2="11" y2="13"/><polygon fill="none" stroke="currentColor" stroke-width="1.5" stroke-linecap="round" stroke-linejoin="round" points="22 2 15 22 11 13 2 9 22 2"/></symbol>
  <symbol id="icon-bookmark" viewBox="0 0 24 24"><path fill="none" stroke="currentColor" stroke-width="1.5" stroke-linecap="round" stroke-linejoin="round" d="M19 21l-7-5-7 5V5a2 2 0 012-2h10a2 2 0 012 2z"/></symbol>
  <symbol id="icon-share" viewBox="0 0 24 24"><circle fill="none" stroke="currentColor" stroke-width="1.5" cx="18" cy="5" r="3"/><circle fill="none" stroke="currentColor" stroke-width="1.5" cx="6" cy="12" r="3"/><circle fill="none" stroke="currentColor" stroke-width="1.5" cx="18" cy="19" r="3"/><line stroke="currentColor" stroke-width="1.5" stroke-linecap="round" x1="8.59" y1="13.51" x2="15.42" y2="17.49"/><line stroke="currentColor" stroke-width="1.5" stroke-linecap="round" x1="15.41" y1="6.51" x2="8.59" y2="10.49"/></symbol>
  <symbol id="icon-shield" viewBox="0 0 24 24"><path fill="none" stroke="currentColor" stroke-width="1.5" stroke-linecap="round" stroke-linejoin="round" d="M12 2l9 4v6c0 5.3-4.1 9.8-9 11-4.9-1.2-9-5.7-9-11V6l9-4z"/><polyline fill="none" stroke="currentColor" stroke-width="1.5" stroke-linecap="round" stroke-linejoin="round" points="9 12 11 14 15 10"/></symbol>
  <symbol id="icon-key" viewBox="0 0 24 24"><circle fill="none" stroke="currentColor" stroke-width="1.5" cx="7.5" cy="11.5" r="4.5"/><path fill="none" stroke="currentColor" stroke-width="1.5" stroke-linecap="round" stroke-linejoin="round" d="M12 16l9-9"/><line stroke="currentColor" stroke-width="1.5" stroke-linecap="round" x1="19" y1="9" x2="19" y2="12"/><line stroke="currentColor" stroke-width="1.5" stroke-linecap="round" x1="21" y1="7" x2="21" y2="10"/></symbol>
  <symbol id="icon-verified" viewBox="0 0 24 24"><path fill="none" stroke="currentColor" stroke-width="1.5" stroke-linecap="round" stroke-linejoin="round" d="M9 12l2 2 4-4m5.6-3.6l-2-2a2 2 0 00-1.4-.6h-2.8L13 2.6a2 2 0 00-2 0L9.6 3.8H6.8a2 2 0 00-1.4.6l-2 2A2 2 0 002.8 8v2.8L1.6 12a2 2 0 000 2l1.2 1.2V18a2 2 0 001.4 1.4l2 .6 1.2 1.4a2 2 0 002 0l1.2-1.4 2-.6A2 2 0 0014.4 18v-2.8l1.2-1.2a2 2 0 000-2l-1.2-1.2V8a2 2 0 00-.6-1.4l-2-2"/></symbol>
  <symbol id="icon-tag" viewBox="0 0 24 24"><path fill="none" stroke="currentColor" stroke-width="1.5" stroke-linecap="round" stroke-linejoin="round" d="M20.6 8.3l-9-9a1 1 0 00-.7-.3H3a2 2 0 00-2 2v7.9a1 1 0 00.3.7l9 9a1 1 0 001.4 0l8.9-8.9a1 1 0 000-1.4z"/><circle fill="currentColor" cx="6.5" cy="6.5" r="1.2"/></symbol>
  <symbol id="icon-trash" viewBox="0 0 24 24"><polyline fill="none" stroke="currentColor" stroke-width="1.5" stroke-linecap="round" stroke-linejoin="round" points="3 6 5 6 21 6"/><path fill="none" stroke="currentColor" stroke-width="1.5" stroke-linecap="round" stroke-linejoin="round" d="M19 6v14a2 2 0 01-2 2H7a2 2 0 01-2-2V6M8 6V4a2 2 0 012-2h4a2 2 0 012 2v2"/><line stroke="currentColor" stroke-width="1.5" stroke-linecap="round" x1="10" y1="11" x2="10" y2="17"/><line stroke="currentColor" stroke-width="1.5" stroke-linecap="round" x1="14" y1="11" x2="14" y2="17"/></symbol>
  <symbol id="icon-pen" viewBox="0 0 24 24"><line stroke="currentColor" stroke-width="1.5" stroke-linecap="round" x1="18" y1="2" x2="22" y2="6"/><path fill="none" stroke="currentColor" stroke-width="1.5" stroke-linecap="round" stroke-linejoin="round" d="M7.5 20.5L2 22l1.5-5.5 14-14 4 4-14 14z"/></symbol>
  <symbol id="icon-save" viewBox="0 0 24 24"><path fill="none" stroke="currentColor" stroke-width="1.5" stroke-linecap="round" stroke-linejoin="round" d="M19 21H5a2 2 0 01-2-2V5a2 2 0 012-2h11l5 5v11a2 2 0 01-2 2z"/><polyline fill="none" stroke="currentColor" stroke-width="1.5" stroke-linecap="round" stroke-linejoin="round" points="17 21 17 13 7 13 7 21"/><polyline fill="none" stroke="currentColor" stroke-width="1.5" stroke-linecap="round" stroke-linejoin="round" points="7 3 7 8 15 8"/></symbol>
  <symbol id="icon-image" viewBox="0 0 24 24"><rect fill="none" stroke="currentColor" stroke-width="1.5" stroke-linejoin="round" x="3" y="3" width="18" height="18" rx="2"/><circle fill="none" stroke="currentColor" stroke-width="1.5" cx="9" cy="9" r="2"/><path fill="none" stroke="currentColor" stroke-width="1.5" stroke-linecap="round" stroke-linejoin="round" d="M21 15l-5-5L5 21"/></symbol>
  <symbol id="icon-upload" viewBox="0 0 24 24"><polyline fill="none" stroke="currentColor" stroke-width="1.5" stroke-linecap="round" stroke-linejoin="round" points="16 16 12 12 8 16"/><line stroke="currentColor" stroke-width="1.5" stroke-linecap="round" x1="12" y1="12" x2="12" y2="21"/><path fill="none" stroke="currentColor" stroke-width="1.5" stroke-linecap="round" d="M20.4 18.4A5 5 0 0018 9h-1.3A8 8 0 103 16.3"/></symbol>
  <symbol id="icon-door" viewBox="0 0 24 24"><path fill="none" stroke="currentColor" stroke-width="1.5" stroke-linecap="round" stroke-linejoin="round" d="M13 4H5a1 1 0 00-1 1v15H2M13 4h6a1 1 0 011 1v15h2M13 4v16"/><circle fill="currentColor" cx="15" cy="13" r="1"/></symbol>
  <symbol id="icon-sign-out" viewBox="0 0 24 24"><path fill="none" stroke="currentColor" stroke-width="1.5" stroke-linecap="round" stroke-linejoin="round" d="M9 21H5a2 2 0 01-2-2V5a2 2 0 012-2h4"/><polyline fill="none" stroke="currentColor" stroke-width="1.5" stroke-linecap="round" stroke-linejoin="round" points="16 17 21 12 16 7"/><line stroke="currentColor" stroke-width="1.5" stroke-linecap="round" x1="21" y1="12" x2="9" y2="12"/></symbol>
  <symbol id="icon-clipboard" viewBox="0 0 24 24"><path fill="none" stroke="currentColor" stroke-width="1.5" stroke-linecap="round" stroke-linejoin="round" d="M9 5H7a2 2 0 00-2 2v12a2 2 0 002 2h10a2 2 0 002-2V7a2 2 0 00-2-2h-2"/><rect fill="none" stroke="currentColor" stroke-width="1.5" stroke-linejoin="round" x="9" y="3" width="6" height="4" rx="2"/><polyline fill="none" stroke="currentColor" stroke-width="1.5" stroke-linecap="round" stroke-linejoin="round" points="9 14 11 16 15 12"/></symbol>
  <symbol id="icon-phone" viewBox="0 0 24 24"><path fill="none" stroke="currentColor" stroke-width="1.5" stroke-linecap="round" stroke-linejoin="round" d="M22 16.9v3a2 2 0 01-2.2 2 19.8 19.8 0 01-8.6-3.1 19.5 19.5 0 01-6-6 19.8 19.8 0 01-3.1-8.7A2 2 0 014.1 2h3a2 2 0 012 1.7c.1.8.4 1.7.7 2.4a2 2 0 01-.4 2.1L8 9.9a16 16 0 006 6l1.7-1.7a2 2 0 012.1-.4c.8.3 1.6.5 2.5.6a2 2 0 011.7 2z"/></symbol>
  <symbol id="icon-chart" viewBox="0 0 24 24"><polyline fill="none" stroke="currentColor" stroke-width="1.5" stroke-linecap="round" stroke-linejoin="round" points="3 17 9 11 13 15 21 7"/><polyline fill="none" stroke="currentColor" stroke-width="1.5" stroke-linecap="round" stroke-linejoin="round" points="14 7 21 7 21 14"/></symbol>
  <symbol id="icon-building" viewBox="0 0 24 24"><rect fill="none" stroke="currentColor" stroke-width="1.5" stroke-linejoin="round" x="2" y="3" width="9" height="18" rx="1"/><path fill="none" stroke="currentColor" stroke-width="1.5" stroke-linecap="round" d="M11 8h7a1 1 0 011 1v12"/><line stroke="currentColor" stroke-width="1.5" stroke-linecap="round" x1="2" y1="21" x2="22" y2="21"/><line stroke="currentColor" stroke-width="1.5" stroke-linecap="round" x1="5" y1="7" x2="8" y2="7"/><line stroke="currentColor" stroke-width="1.5" stroke-linecap="round" x1="5" y1="11" x2="8" y2="11"/><line stroke="currentColor" stroke-width="1.5" stroke-linecap="round" x1="5" y1="15" x2="8" y2="15"/><line stroke="currentColor" stroke-width="1.5" stroke-linecap="round" x1="14" y1="12" x2="17" y2="12"/><line stroke="currentColor" stroke-width="1.5" stroke-linecap="round" x1="14" y1="16" x2="17" y2="16"/></symbol>

  <!-- EXPERIENCES -->
  <symbol id="icon-tours" viewBox="0 0 24 24"><circle fill="none" stroke="currentColor" stroke-width="1.5" cx="12" cy="12" r="10"/><path fill="none" stroke="currentColor" stroke-width="1.5" stroke-linecap="round" stroke-linejoin="round" d="M16.2 7.8l-2.2 6-6 2.2 2.2-6z"/></symbol>
  <symbol id="icon-chef-hat" viewBox="0 0 24 24"><path fill="none" stroke="currentColor" stroke-width="1.5" stroke-linecap="round" stroke-linejoin="round" d="M8 21h8M8 17.5h8"/><line stroke="currentColor" stroke-width="1.5" stroke-linecap="round" x1="8" y1="17.5" x2="8" y2="13.5"/><line stroke="currentColor" stroke-width="1.5" stroke-linecap="round" x1="16" y1="17.5" x2="16" y2="13.5"/><line stroke="currentColor" stroke-width="1.5" stroke-linecap="round" x1="8" y1="13.5" x2="16" y2="13.5"/><path fill="none" stroke="currentColor" stroke-width="1.5" stroke-linecap="round" stroke-linejoin="round" d="M8 13.5c-2.8-.5-5-2.8-5-5.5a6 6 0 0112 0 5 5 0 015 5c0 2.4-1.5 4-3 4.5H16"/></symbol>
  <symbol id="icon-cloche" viewBox="0 0 24 24"><path fill="none" stroke="currentColor" stroke-width="1.5" stroke-linecap="round" stroke-linejoin="round" d="M3.5 14a8.5 8.5 0 0117 0"/><line stroke="currentColor" stroke-width="1.5" stroke-linecap="round" x1="2" y1="14" x2="22" y2="14"/><line stroke="currentColor" stroke-width="1.5" stroke-linecap="round" x1="2" y1="18" x2="22" y2="18"/><line stroke="currentColor" stroke-width="1.5" stroke-linecap="round" x1="12" y1="6" x2="12" y2="10"/><circle fill="none" stroke="currentColor" stroke-width="1.5" cx="12" cy="4.5" r="1.5"/></symbol>

</svg>
