<svg xmlns="http://www.w3.org/2000/svg" viewBox="0 0 1505 483" width="1505" height="483">
<path d="M 1315 264 L 1315 326 L 1357 326 L 1357 319 L 1325 319 L 1324 318 L 1324 299 L 1325 298 L 1354 298 L 1354 291 L 1325 291 L 1324 290 L 1324 272 L 1325 271 L 1356 271 L 1356 264 Z" fill="#fff" fill-rule="evenodd"/>
<path d="M 1254 264 L 1254 271 L 1274 271 L 1275 272 L 1275 326 L 1284 326 L 1284 272 L 1285 271 L 1305 271 L 1305 264 Z" fill="#fff" fill-rule="evenodd"/>
<path d="M 1191 264 L 1191 326 L 1200 326 L 1200 282 L 1201 281 L 1236 326 L 1244 326 L 1244 264 L 1235 264 L 1235 309 L 1234 310 L 1199 264 Z" fill="#fff" fill-rule="evenodd"/>
<path d="M 1137 264 L 1137 326 L 1179 326 L 1179 319 L 1147 319 L 1146 318 L 1146 299 L 1147 298 L 1176 298 L 1176 291 L 1147 291 L 1146 290 L 1146 272 L 1147 271 L 1178 271 L 1178 264 Z" fill="#fff" fill-rule="evenodd"/>
<path d="M 1056 264 L 1056 326 L 1065 326 L 1065 280 L 1066 279 L 1088 311 L 1091 310 L 1111 280 L 1112 281 L 1112 326 L 1121 326 L 1121 264 L 1111 264 L 1089 296 L 1067 264 Z" fill="#fff" fill-rule="evenodd"/>
<path d="M 1009 264 L 986 321 L 983 326 L 993 326 L 997 316 L 1000 312 L 1030 312 L 1036 326 L 1046 326 L 1020 264 Z M 1015 275 L 1027 304 L 1026 305 L 1003 305 L 1002 304 L 1012 279 Z" fill="#fff" fill-rule="evenodd"/>
<path d="M 935 264 L 935 271 L 955 271 L 956 272 L 956 326 L 965 326 L 965 272 L 966 271 L 986 271 L 986 264 Z" fill="#fff" fill-rule="evenodd"/>
<path d="M 880 264 L 880 326 L 889 326 L 889 303 L 890 302 L 905 302 L 921 326 L 932 326 L 916 303 L 918 300 L 921 299 L 927 293 L 929 289 L 930 280 L 927 273 L 921 267 L 914 264 Z M 889 272 L 890 271 L 910 271 L 915 273 L 920 279 L 921 283 L 919 289 L 916 292 L 910 295 L 890 295 L 889 294 Z" fill="#fff" fill-rule="evenodd"/>
<path d="M 834 264 L 811 321 L 808 326 L 818 326 L 822 316 L 825 312 L 855 312 L 861 326 L 871 326 L 845 264 Z M 840 275 L 852 304 L 851 305 L 828 305 L 827 304 L 837 279 Z" fill="#fff" fill-rule="evenodd"/>
<path d="M 794 264 L 762 264 L 762 326 L 771 326 L 771 305 L 772 304 L 794 304 L 801 301 L 807 295 L 810 288 L 810 280 L 807 273 L 801 267 Z M 771 272 L 772 271 L 789 271 L 796 274 L 799 277 L 801 282 L 801 286 L 799 291 L 793 296 L 789 297 L 772 297 L 771 296 Z" fill="#fff" fill-rule="evenodd"/>
<path d="M 715 264 L 692 321 L 689 326 L 699 326 L 703 316 L 706 312 L 736 312 L 742 326 L 752 326 L 726 264 Z M 721 275 L 733 304 L 732 305 L 709 305 L 708 304 L 718 279 Z" fill="#fff" fill-rule="evenodd"/>
<path d="M 905 172 L 882 229 L 879 234 L 889 234 L 893 224 L 896 220 L 926 220 L 932 234 L 942 234 L 916 172 Z M 911 183 L 923 212 L 922 213 L 899 213 L 898 212 L 908 187 Z" fill="#fff" fill-rule="evenodd"/>
<path d="M 835 172 L 835 234 L 874 234 L 874 227 L 845 227 L 844 226 L 844 172 Z" fill="#fff" fill-rule="evenodd"/>
<path d="M 785 172 L 785 234 L 824 234 L 824 227 L 795 227 L 794 226 L 794 172 Z" fill="#fff" fill-rule="evenodd"/>
<path d="M 760 172 L 760 234 L 769 234 L 769 172 Z" fill="#fff" fill-rule="evenodd"/>
<path d="M 689 172 L 714 234 L 725 234 L 750 172 L 740 172 L 720 222 L 718 221 L 700 172 Z" fill="#fff" fill-rule="evenodd"/>
<path d="M 572 295 L 550 284 L 545 280 L 536 276 L 509 260 L 509 169 L 451 135 L 447 134 L 395 166 L 395 225 L 361 244 L 360 243 L 360 230 L 346 230 L 346 252 L 319 267 L 319 338 L 572 338 Z M 510 271 L 555 296 L 563 302 L 563 328 L 562 329 L 510 329 L 509 328 L 509 272 Z M 462 235 L 462 247 L 461 248 L 461 258 L 462 259 L 462 328 L 461 329 L 329 329 L 328 328 L 328 273 L 370 250 L 377 245 L 431 217 Z M 446 145 L 449 145 L 500 175 L 500 328 L 499 329 L 473 329 L 472 328 L 472 230 L 433 207 L 430 207 L 406 220 L 404 219 L 404 172 Z" fill="#fff" fill-rule="evenodd"/>
<path d="M 611 119 L 610 121 L 611 122 L 611 224 L 610 225 L 611 229 L 611 375 L 610 377 L 615 378 L 616 377 L 616 259 L 615 258 L 616 255 L 616 229 L 615 228 L 615 221 L 616 220 L 616 143 L 615 142 L 616 120 Z" fill="#fff" fill-rule="evenodd"/>
</svg>