<svg xmlns="http://www.w3.org/2000/svg" viewBox="0 0 1000 1000" fill="currentColor">
  <path d="M499.3 736.7c-51-64-81-120.1-91-168.1-10-46 0-85 27-115 27.1-30 65.1-46 107.1-46 42 0 80 16 107.1 46 27 30 37.1 69 27 115-10 48.1-40 104.1-91 168.1l-43.1 55.3-43.1-55.3zm42.1 192.2c3.6 4.4 9 6.9 14.7 6.9h0.3c5.7 0 11.1-2.6 14.7-6.9l117.1-142.8c45.9-56.3 75.9-108.9 87.9-155.8 12.4-46.4 7.8-90.1-13.3-126.9-21.1-36.9-54-63.9-94.9-77-40.9-13.1-84.3-11.4-122.7 4.9-38.4-16.3-81.8-18-122.7-4.9-40.9 13.1-73.8 40.1-94.9 77-21.1 36.8-25.7 80.5-13.3 126.9 12 46.9 42 99.5 87.9 155.8l117.2 142.8z"/>
  <path d="M498.7 474.4c-55.3 0-100.3-44.9-100.3-100.3 0-55.3 44.9-100.3 100.3-100.3 55.3 0 100.3 44.9 100.3 100.3 0 55.4-44.9 100.3-100.3 100.3zm0-168.1c-37.4 0-67.8 30.4-67.8 67.8s30.4 67.8 67.8 67.8 67.8-30.4 67.8-67.8-30.4-67.8-67.8-67.8z"/>
</svg>
